<svg width="20" height="20" viewBox="0 0 20 20" fill="none" xmlns="http://www.w3.org/2000/svg">
<path d="M17.5 4.25C17.9141 4.25013 18.25 4.58587 18.25 5C18.2499 5.41402 17.914 5.74987 17.5 5.75H17.417V15.833C17.4169 16.2469 17.0809 16.5827 16.667 16.583C16.2529 16.583 15.9171 16.2471 15.917 15.833V14.083H14.167C13.5263 14.083 12.9112 13.8288 12.458 13.376C12.0049 12.9229 11.7502 12.3077 11.75 11.667V9.08301H4.08301V15.833C4.08288 16.247 3.74703 16.5829 3.33301 16.583C2.91903 16.5828 2.58314 16.247 2.58301 15.833V5.75H2.5C2.08587 5.75 1.75013 5.4141 1.75 5C1.75 4.58579 2.08579 4.25 2.5 4.25H17.5ZM13.25 11.667C13.2502 11.9098 13.3469 12.1427 13.5186 12.3145C13.6904 12.4862 13.924 12.583 14.167 12.583H15.917V9.08301H13.25V11.667ZM4.08301 7.58301H11.75V5.75H4.08301V7.58301ZM13.25 7.58301H15.917V5.75H13.25V7.58301Z" fill="currentColor"/>
</svg>