<svg width="342" height="235" viewBox="0 0 342 235" fill="none" xmlns="http://www.w3.org/2000/svg">
<mask id="path-1-inside-1_125_6162" fill="white">
<path d="M332.675 0C333.164 0 333.408 0 333.638 0.0552602C333.843 0.104254 334.038 0.185062 334.217 0.29472C334.418 0.418403 334.591 0.591355 334.937 0.937258L341.063 7.06274C341.409 7.40865 341.582 7.5816 341.705 7.78343C341.815 7.96237 341.896 8.15746 341.945 8.36154C342 8.59171 342 8.8363 342 9.32548V231C342 233.209 340.209 235 338 235H9.32547C8.8363 235 8.59171 235 8.36154 234.945C8.15746 234.896 7.96237 234.815 7.78343 234.705C7.5816 234.582 7.40865 234.409 7.06274 234.063L0.937257 227.937C0.591355 227.591 0.418403 227.418 0.29472 227.217C0.185062 227.038 0.104254 226.843 0.0552602 226.638C0 226.408 0 226.164 0 225.675V4C2.77034e-06 1.79086 1.79086 1.61064e-08 4 0H332.675Z"/>
</mask>
<path d="M332.675 0C333.164 0 333.408 0 333.638 0.0552602C333.843 0.104254 334.038 0.185062 334.217 0.29472C334.418 0.418403 334.591 0.591355 334.937 0.937258L341.063 7.06274C341.409 7.40865 341.582 7.5816 341.705 7.78343C341.815 7.96237 341.896 8.15746 341.945 8.36154C342 8.59171 342 8.8363 342 9.32548V231C342 233.209 340.209 235 338 235H9.32547C8.8363 235 8.59171 235 8.36154 234.945C8.15746 234.896 7.96237 234.815 7.78343 234.705C7.5816 234.582 7.40865 234.409 7.06274 234.063L0.937257 227.937C0.591355 227.591 0.418403 227.418 0.29472 227.217C0.185062 227.038 0.104254 226.843 0.0552602 226.638C0 226.408 0 226.164 0 225.675V4C2.77034e-06 1.79086 1.79086 1.61064e-08 4 0H332.675Z" fill="#F59E0B" style="fill:#F59E0B;fill:color(display-p3 0.9608 0.6196 0.0431);fill-opacity:1;"/>
<path d="M342 231H343V231H342ZM338 235V236V235ZM0 4L-1 4V4H0ZM4 0V-1V0ZM8.36154 234.945L8.12809 235.917L8.36154 234.945ZM7.06274 234.063L7.76985 233.356L7.06274 234.063ZM7.78343 234.705L7.26093 235.558L7.78343 234.705ZM341.063 7.06274L341.77 6.35564L341.063 7.06274ZM341.705 7.78343L340.853 8.30593L341.705 7.78343ZM341.945 8.36154L342.917 8.12809L341.945 8.36154ZM0.937257 227.937L1.64436 227.23L0.937257 227.937ZM0.29472 227.217L1.14736 226.694V226.694L0.29472 227.217ZM0.0552602 226.638L1.02763 226.405L0.0552602 226.638ZM334.937 0.937258L334.23 1.64437L334.937 0.937258ZM334.217 0.29472L333.694 1.14736L334.217 0.29472ZM333.638 0.0552602L333.872 -0.91711L333.638 0.0552602ZM334.937 0.937258L334.23 1.64437L340.356 7.76985L341.063 7.06274L341.77 6.35564L335.644 0.230152L334.937 0.937258ZM342 9.32548H341V231H342H343V9.32548H342ZM342 231H341C341 232.657 339.657 234 338 234V235V236C340.761 236 343 233.761 343 231H342ZM338 235V234H9.32547V235V236H338V235ZM7.06274 234.063L7.76985 233.356L1.64436 227.23L0.937257 227.937L0.230151 228.644L6.35563 234.77L7.06274 234.063ZM0 225.675H1V4H0H-1V225.675H0ZM0 4L1 4C1 2.34315 2.34315 1 4 1V0V-1C1.23858 -1 -0.999997 1.23858 -1 4L0 4ZM4 0V1H332.675V0V-1H4V0ZM9.32547 235V234C8.7887 234 8.6833 233.994 8.59498 233.972L8.36154 234.945L8.12809 235.917C8.50012 236.006 8.88389 236 9.32547 236V235ZM7.06274 234.063L6.35563 234.77C6.66788 235.082 6.93471 235.358 7.26093 235.558L7.78343 234.705L8.30593 233.853C8.22849 233.805 8.14941 233.735 7.76985 233.356L7.06274 234.063ZM8.36154 234.945L8.59498 233.972C8.49295 233.948 8.3954 233.907 8.30593 233.853L7.78343 234.705L7.26093 235.558C7.52935 235.722 7.82198 235.844 8.12809 235.917L8.36154 234.945ZM341.063 7.06274L340.356 7.76985C340.735 8.14941 340.805 8.22849 340.853 8.30593L341.705 7.78343L342.558 7.26093C342.358 6.93471 342.082 6.66788 341.77 6.35564L341.063 7.06274ZM342 9.32548H343C343 8.8839 343.006 8.50012 342.917 8.12809L341.945 8.36154L340.972 8.59498C340.994 8.6833 341 8.7887 341 9.32548H342ZM341.705 7.78343L340.853 8.30593C340.907 8.3954 340.948 8.49295 340.972 8.59498L341.945 8.36154L342.917 8.12809C342.844 7.82198 342.722 7.52935 342.558 7.26093L341.705 7.78343ZM0.937257 227.937L1.64436 227.23C1.2648 226.851 1.19482 226.772 1.14736 226.694L0.29472 227.217L-0.557921 227.739C-0.358011 228.065 -0.0820953 228.332 0.230151 228.644L0.937257 227.937ZM0 225.675H-1C-1 226.116 -1.00643 226.5 -0.91711 226.872L0.0552602 226.638L1.02763 226.405C1.00643 226.317 1 226.211 1 225.675H0ZM0.29472 227.217L1.14736 226.694C1.09253 226.605 1.05213 226.507 1.02763 226.405L0.0552602 226.638L-0.91711 226.872C-0.84362 227.178 -0.722407 227.471 -0.557921 227.739L0.29472 227.217ZM334.937 0.937258L335.644 0.230152C335.332 -0.0820948 335.065 -0.358011 334.739 -0.557921L334.217 0.29472L333.694 1.14736C333.772 1.19482 333.851 1.2648 334.23 1.64437L334.937 0.937258ZM332.675 0V1C333.211 1 333.317 1.00643 333.405 1.02763L333.638 0.0552602L333.872 -0.91711C333.5 -1.00643 333.116 -1 332.675 -1V0ZM334.217 0.29472L334.739 -0.557921C334.471 -0.722407 334.178 -0.84362 333.872 -0.91711L333.638 0.0552602L333.405 1.02763C333.507 1.05213 333.605 1.09253 333.694 1.14736L334.217 0.29472Z" fill="url(#paint0_linear_125_6162)" fill-opacity="0.5" mask="url(#path-1-inside-1_125_6162)"/>
<defs>
<linearGradient id="paint0_linear_125_6162" x1="0" y1="0" x2="219.375" y2="319.26" gradientUnits="userSpaceOnUse">
<stop stop-color="#FAFAFA" stop-opacity="0.75" style="stop-color:#FAFAFA;stop-color:color(display-p3 0.9804 0.9804 0.9804);stop-opacity:0.75;"/>
<stop offset="0.5" stop-color="#FAFAFA" stop-opacity="0.15" style="stop-color:#FAFAFA;stop-color:color(display-p3 0.9804 0.9804 0.9804);stop-opacity:0.15;"/>
<stop offset="1" stop-color="#FAFAFA" stop-opacity="0.75" style="stop-color:#FAFAFA;stop-color:color(display-p3 0.9804 0.9804 0.9804);stop-opacity:0.75;"/>
</linearGradient>
</defs>
</svg>
